<svg width="20" height="21" viewBox="0 0 20 21" fill="none" xmlns="http://www.w3.org/2000/svg">
<g id="fi_991959" clip-path="url(#clip0_2128_306)">
<g id="Group">
<g id="Group_2">
<path id="Vector" d="M10.0077 0.500004C4.48453 0.495355 0.00465206 4.96907 3.61921e-06 10.4923C-0.00464482 16.0155 4.46907 20.4954 9.99227 20.5C15.5147 20.4954 19.9915 16.0225 20 10.5C20 4.97989 15.5279 0.504652 10.0077 0.500004ZM9.99227 18.8359C5.38856 18.8359 1.65637 15.1037 1.65637 10.5C1.65637 5.89629 5.38856 2.16411 9.99227 2.16411C14.5944 2.16875 18.3235 5.89785 18.3282 10.5C18.3282 15.1037 14.596 18.8359 9.99227 18.8359Z" fill="#03D5F8"/>
</g>
</g>
<g id="Group_3">
<g id="Group_4">
<path id="Vector_2" d="M12.6934 10.0124C13.3622 9.63542 13.7236 8.88081 13.599 8.12382C13.4442 6.95511 12.051 6.5139 10.9519 6.42105V4.66409H9.86834V6.40558H9.1408V4.66409H8.05721V6.40558H5.87451V7.52788H6.68721C7.051 7.52788 7.229 7.63624 7.229 7.93034V12.7523C7.229 13.1548 7.02775 13.2787 6.81104 13.2787H5.98287V14.4242H8.08814V16.2044H9.17947V14.4242H9.90701V16.2044H10.9674V14.4242H11.1996C13.4287 14.4242 14.1717 13.3328 14.1717 11.8468C14.1539 10.9706 13.5463 10.2167 12.6934 10.0124ZM9.14076 7.59753H9.91475C10.4565 7.59753 11.5247 7.69042 11.5247 8.57276C11.5618 9.14862 11.1446 9.65327 10.5726 9.72601H9.14076V7.59753ZM10.3404 13.1703V13.1625H9.14076V10.8405H10.534C10.859 10.8405 12.0819 10.9489 12.0819 11.8158C12.0819 12.6826 11.5015 13.1703 10.3404 13.1703Z" fill="#03D5F8"/>
</g>
</g>
</g>
<defs>
<clipPath id="clip0_2128_306">
<rect width="20" height="20" fill="white" transform="translate(0 0.5)"/>
</clipPath>
</defs>
</svg>
