<svg width="32" height="33" viewBox="0 0 32 33" fill="none" xmlns="http://www.w3.org/2000/svg">
<g id="fi_1958738" clip-path="url(#clip0_2128_445)">
<path id="Vector" d="M21.5557 16.683C21.8147 16.683 22.0245 16.4731 22.0245 16.2142V12.829C22.0245 12.6337 21.9033 12.4587 21.7203 12.3902L16.1644 10.3067C16.0582 10.2669 15.9414 10.2669 15.8352 10.3067L10.2792 12.3902C10.0963 12.4588 9.9751 12.6337 9.9751 12.829V14.334C9.9751 14.5929 10.1849 14.8028 10.4438 14.8028C10.7028 14.8028 10.9126 14.5929 10.9126 14.334V13.5055L15.531 15.2373V21.4335L10.9126 19.7017V16.5268C10.9126 16.2679 10.7028 16.058 10.4438 16.058C10.1849 16.058 9.9751 16.2679 9.9751 16.5268V20.0265C9.9751 20.2219 10.0963 20.3968 10.2792 20.4654L15.8352 22.5488C15.8352 22.5485 15.8353 22.548 15.8354 22.5475C15.8882 22.5673 15.9437 22.5787 15.9998 22.5787C16.0553 22.5787 16.111 22.5688 16.1644 22.5488L21.7203 20.4653C21.9033 20.3967 22.0245 20.2218 22.0245 20.0265V18.3991C22.0245 18.1402 21.8147 17.9303 21.5557 17.9303C21.2968 17.9303 21.087 18.1402 21.087 18.3991V19.7016L16.4685 21.4335V15.2373L21.087 13.5055V16.2142C21.087 16.4732 21.2968 16.683 21.5557 16.683ZM15.9998 14.4119L11.7789 12.8291L15.9998 11.2462L20.2207 12.8291L15.9998 14.4119Z" fill="#03D5F8"/>
<path id="Vector_2" d="M15.5313 5.10648V8.47273C15.5313 8.73161 15.7411 8.94148 16 8.94148C16.259 8.94148 16.4688 8.73161 16.4688 8.47273V5.10648C17.5478 4.88842 18.3628 3.93292 18.3628 2.79055C18.3628 1.48767 17.3029 0.427734 16 0.427734C14.6971 0.427734 13.6372 1.48767 13.6372 2.79055C13.6372 3.93292 14.4522 4.88842 15.5313 5.10648ZM16 1.36523C16.7859 1.36523 17.4253 2.00461 17.4253 2.79055C17.4253 3.57648 16.7859 4.21586 16 4.21586C15.2141 4.21586 14.5747 3.57648 14.5747 2.79055C14.5747 2.00461 15.2141 1.36523 16 1.36523Z" fill="#03D5F8"/>
<path id="Vector_3" d="M25.0179 22.1989C24.2914 22.1989 23.62 22.4387 23.0785 22.8433L21.9565 21.7213C21.7734 21.5382 21.4766 21.5382 21.2935 21.7213C21.1105 21.9043 21.1105 22.2012 21.2935 22.3842L22.4157 23.5062C22.011 24.0477 21.7712 24.7192 21.7712 25.4455C21.7712 27.2358 23.2277 28.6922 25.0179 28.6922C26.8081 28.6922 28.2646 27.2358 28.2646 25.4455C28.2646 23.6553 26.8081 22.1989 25.0179 22.1989ZM25.0179 27.7548C23.7445 27.7548 22.7087 26.7188 22.7087 25.4456C22.7087 24.1723 23.7445 23.1364 25.0179 23.1364C26.2912 23.1364 27.327 24.1723 27.327 25.4456C27.327 26.7188 26.2912 27.7548 25.0179 27.7548Z" fill="#03D5F8"/>
<path id="Vector_4" d="M6.98198 10.6564C7.70841 10.6564 8.37979 10.4166 8.92129 10.012L10.0434 11.134C10.1349 11.2255 10.2549 11.2713 10.3749 11.2713C10.4948 11.2713 10.6148 11.2256 10.7064 11.134C10.8894 10.951 10.8894 10.6541 10.7064 10.4711L9.58429 9.34909C9.98891 8.80759 10.2287 8.13615 10.2287 7.40977C10.2287 5.61952 8.77223 4.16309 6.98204 4.16309C5.19185 4.16309 3.73535 5.61952 3.73535 7.40977C3.73535 9.20002 5.19173 10.6564 6.98198 10.6564ZM6.98198 5.10052C8.25529 5.10052 9.29116 6.13646 9.29116 7.40971C9.29116 8.68296 8.25529 9.7189 6.98198 9.7189C5.70866 9.7189 4.67279 8.68296 4.67279 7.40971C4.67279 6.13646 5.70866 5.10052 6.98198 5.10052Z" fill="#03D5F8"/>
<path id="Vector_5" d="M16.4688 27.7491V24.3828C16.4688 24.1239 16.259 23.9141 16 23.9141C15.7411 23.9141 15.5313 24.1239 15.5313 24.3828V27.7491C14.4522 27.9671 13.6372 28.9226 13.6372 30.065C13.6372 31.3679 14.6971 32.4278 16 32.4278C17.3029 32.4278 18.3628 31.3679 18.3628 30.065C18.3628 28.9226 17.5478 27.9671 16.4688 27.7491ZM16 31.4903C15.2141 31.4903 14.5747 30.8509 14.5747 30.065C14.5747 29.2791 15.2141 28.6397 16 28.6397C16.7859 28.6397 17.4253 29.2791 17.4253 30.065C17.4253 30.8509 16.7859 31.4903 16 31.4903Z" fill="#03D5F8"/>
<path id="Vector_6" d="M29.6373 14.0649C28.4949 14.0649 27.5394 14.8799 27.3213 15.959H23.9551C23.6961 15.959 23.4863 16.1689 23.4863 16.4278C23.4863 16.6866 23.6961 16.8965 23.9551 16.8965H27.3213C27.5394 17.9756 28.4949 18.7906 29.6373 18.7906C30.9401 18.7906 32.0001 17.7306 32.0001 16.4278C32.0001 15.1249 30.9401 14.0649 29.6373 14.0649ZM29.6373 17.8531C28.8514 17.8531 28.212 17.2137 28.212 16.4278C28.212 15.6418 28.8513 15.0024 29.6373 15.0024C30.4232 15.0024 31.0626 15.6418 31.0626 16.4278C31.0626 17.2137 30.4232 17.8531 29.6373 17.8531Z" fill="#03D5F8"/>
<path id="Vector_7" d="M4.67875 16.8965H8.045C8.30394 16.8965 8.51375 16.6866 8.51375 16.4278C8.51375 16.1689 8.30394 15.959 8.045 15.959H4.67875C4.46069 14.8799 3.50519 14.0649 2.36281 14.0649C1.05994 14.0649 0 15.1249 0 16.4278C0 17.7306 1.05994 18.7906 2.36281 18.7906C3.50519 18.7906 4.46069 17.9756 4.67875 16.8965ZM2.36281 17.8531C1.57687 17.8531 0.9375 17.2137 0.9375 16.4278C0.9375 15.6418 1.57687 15.0024 2.36281 15.0024C3.14875 15.0024 3.78806 15.6418 3.78806 16.4278C3.78806 17.2137 3.14869 17.8531 2.36281 17.8531Z" fill="#03D5F8"/>
<path id="Vector_8" d="M21.625 11.2714C21.745 11.2714 21.865 11.2256 21.9565 11.1341L23.0786 10.012C23.6201 10.4166 24.2915 10.6565 25.0179 10.6565C26.8082 10.6565 28.2646 9.20002 28.2646 7.40977C28.2646 5.61952 26.8081 4.16309 25.0179 4.16309C23.2277 4.16309 21.7712 5.61952 21.7712 7.40977C21.7712 8.13621 22.011 8.80759 22.4157 9.34909L21.2935 10.4711C21.1105 10.6542 21.1105 10.951 21.2935 11.134C21.3851 11.2256 21.5051 11.2714 21.625 11.2714ZM25.0179 5.10059C26.2912 5.10059 27.3271 6.13652 27.3271 7.40977C27.3271 8.68302 26.2912 9.71896 25.0179 9.71896C23.7446 9.71896 22.7087 8.68302 22.7087 7.40977C22.7087 6.13652 23.7446 5.10059 25.0179 5.10059Z" fill="#03D5F8"/>
<path id="Vector_9" d="M10.0434 21.7213L8.92135 22.8433C8.37985 22.4387 7.70841 22.1989 6.98204 22.1989C5.19179 22.1989 3.73535 23.6553 3.73535 25.4456C3.73535 27.2358 5.19185 28.6923 6.98204 28.6923C8.77223 28.6923 10.2287 27.2358 10.2287 25.4456C10.2287 24.7191 9.98891 24.0478 9.58429 23.5063L10.7064 22.3842C10.8894 22.2011 10.8894 21.9043 10.7064 21.7213C10.5233 21.5382 10.2265 21.5382 10.0434 21.7213ZM6.98204 27.7548C5.70873 27.7548 4.67285 26.7188 4.67285 25.4456C4.67285 24.1723 5.70873 23.1364 6.98204 23.1364C8.25535 23.1364 9.29123 24.1723 9.29123 25.4456C9.29123 26.7188 8.25535 27.7548 6.98204 27.7548Z" fill="#03D5F8"/>
</g>
<defs>
<clipPath id="clip0_2128_445">
<rect width="32" height="32" fill="white" transform="translate(0 0.427734)"/>
</clipPath>
</defs>
</svg>
