<svg width="32" height="33" viewBox="0 0 32 33" fill="none" xmlns="http://www.w3.org/2000/svg">
<g id="fi_1835982" clip-path="url(#clip0_2128_461)">
<path id="Vector" d="M31.0858 8.17916C31.0858 6.73165 29.9083 5.55415 28.4608 5.55415C27.7176 5.55415 27.046 5.86519 26.5679 6.36324L16.324 0.448914C16.1307 0.337341 15.8926 0.337341 15.6993 0.448914L5.45509 6.36324C4.97706 5.86519 4.30567 5.55415 3.56251 5.55415C2.11499 5.55415 0.9375 6.73165 0.9375 8.17916C0.9375 9.4111 1.79077 10.447 2.93751 10.7282V22.5527C2.93751 22.7759 3.05665 22.9822 3.25001 23.094L13.4908 29.0066C13.4229 29.2395 13.3858 29.4856 13.3858 29.7403C13.3858 31.1875 14.5633 32.3653 16.0108 32.3653C17.4581 32.3653 18.6356 31.1875 18.6356 29.7403C18.6356 29.4859 18.5987 29.2403 18.5308 29.0073L28.7733 23.094C28.9666 22.9824 29.0858 22.7759 29.0858 22.5527V10.7282C30.2325 10.447 31.0858 9.4111 31.0858 8.17916ZM2.1875 8.17916C2.1875 7.42086 2.8042 6.80416 3.56251 6.80416C4.32057 6.80416 4.93727 7.42086 4.93727 8.17916C4.93727 8.93722 4.32057 9.55417 3.56251 9.55417C2.8042 9.55417 2.1875 8.93722 2.1875 8.17916ZM16.0108 31.1153C15.2525 31.1153 14.6358 30.4986 14.6358 29.7403C14.6358 28.9822 15.2525 28.3653 16.0108 28.3653C16.7688 28.3653 17.3858 28.9822 17.3858 29.7403C17.3858 30.4986 16.7688 31.1153 16.0108 31.1153ZM17.9048 27.9256C17.4266 27.4268 16.7547 27.1153 16.0108 27.1153C15.2674 27.1153 14.5955 27.4265 14.1175 27.9248L4.18751 22.1919V10.7282C5.334 10.447 6.18727 9.4111 6.18727 8.17916C6.18727 7.92428 6.15016 7.67794 6.08205 7.44454L16.0115 1.71186L25.9412 7.44454C25.8731 7.67794 25.836 7.92403 25.836 8.17916C25.836 9.4111 26.6893 10.447 27.8358 10.7282V22.1919L17.9048 27.9256ZM28.4608 9.55417C27.7027 9.55417 27.0858 8.93722 27.0858 8.17916C27.0858 7.42086 27.7027 6.80416 28.4608 6.80416C29.2191 6.80416 29.8358 7.42086 29.8358 8.17916C29.8358 8.93722 29.2191 9.55417 28.4608 9.55417Z" fill="#03D5F8"/>
<path id="Vector_2" d="M24.574 10.0607L16.324 5.29779C16.1306 5.18622 15.8926 5.18622 15.6992 5.29779L7.44922 10.0607C7.25586 10.1726 7.13672 10.3789 7.13672 10.602V20.1282C7.13672 20.3513 7.25586 20.5578 7.44922 20.6694L15.6992 25.4326C15.7959 25.4883 15.9036 25.5164 16.0115 25.5164C16.1197 25.5164 16.2273 25.4883 16.324 25.4326L24.574 20.6694C24.7674 20.5578 24.8865 20.3513 24.8865 20.1282V10.602C24.8865 10.3789 24.7674 10.1726 24.574 10.0607ZM16.0115 6.56073L23.0115 10.602L16.0115 14.6435L9.01172 10.602L16.0115 6.56073ZM16.6365 23.8088V20.9902C16.6365 20.645 16.3567 20.3652 16.0115 20.3652C15.6665 20.3652 15.3867 20.645 15.3867 20.9902V23.8088L8.38672 19.7673V11.6845L15.6992 15.9065C15.7959 15.9621 15.9036 15.9902 16.0115 15.9902C16.1197 15.9902 16.2273 15.9621 16.324 15.9065L23.6365 11.6845V19.7673L16.6365 23.8088Z" fill="#03D5F8"/>
<path id="Vector_3" d="M16.011 17.5527C15.8459 17.5527 15.6853 17.6194 15.5684 17.7358C15.4521 17.8521 15.3853 18.0132 15.3853 18.1777C15.3853 18.342 15.4521 18.5032 15.5684 18.6194C15.6853 18.7358 15.8459 18.8027 16.011 18.8027C16.1753 18.8027 16.3367 18.7358 16.4529 18.6194C16.5691 18.5032 16.636 18.342 16.636 18.1777C16.636 18.0132 16.5691 17.8521 16.4529 17.7358C16.3367 17.6194 16.1753 17.5527 16.011 17.5527Z" fill="#03D5F8"/>
</g>
<defs>
<clipPath id="clip0_2128_461">
<rect width="32" height="32" fill="white" transform="translate(0 0.427734)"/>
</clipPath>
</defs>
</svg>
