<svg width="20" height="21" viewBox="0 0 20 21" fill="none" xmlns="http://www.w3.org/2000/svg">
<g id="vuesax/outline/danger">
<g id="danger">
<path id="Vector" d="M10 12.7917C9.65833 12.7917 9.375 12.5083 9.375 12.1667V8C9.375 7.65833 9.65833 7.375 10 7.375C10.3417 7.375 10.625 7.65833 10.625 8V12.1667C10.625 12.5083 10.3417 12.7917 10 12.7917Z" fill="#03D5F8"/>
<path id="Vector_2" d="M9.99984 15.5C9.94984 15.5 9.8915 15.4917 9.83317 15.4833C9.78317 15.475 9.73317 15.4583 9.68317 15.4333C9.63317 15.4167 9.58317 15.3917 9.53317 15.3583C9.4915 15.325 9.44984 15.2917 9.40817 15.2583C9.25817 15.1 9.1665 14.8833 9.1665 14.6667C9.1665 14.45 9.25817 14.2333 9.40817 14.075C9.44984 14.0417 9.4915 14.0083 9.53317 13.975C9.58317 13.9417 9.63317 13.9167 9.68317 13.9C9.73317 13.875 9.78317 13.8583 9.83317 13.85C9.9415 13.825 10.0582 13.825 10.1582 13.85C10.2165 13.8583 10.2665 13.875 10.3165 13.9C10.3665 13.9167 10.4165 13.9417 10.4665 13.975C10.5082 14.0083 10.5498 14.0417 10.5915 14.075C10.7415 14.2333 10.8332 14.45 10.8332 14.6667C10.8332 14.8833 10.7415 15.1 10.5915 15.2583C10.5498 15.2917 10.5082 15.325 10.4665 15.3583C10.4165 15.3917 10.3665 15.4167 10.3165 15.4333C10.2665 15.4583 10.2165 15.475 10.1582 15.4833C10.1082 15.4917 10.0498 15.5 9.99984 15.5Z" fill="#03D5F8"/>
<path id="Vector_3" d="M15.0502 18.9667H4.95022C3.32522 18.9667 2.08356 18.375 1.45022 17.3083C0.825224 16.2417 0.908557 14.8667 1.70022 13.4417L6.75022 4.35833C7.58356 2.85833 8.73356 2.03333 10.0002 2.03333C11.2669 2.03333 12.4169 2.85833 13.2502 4.35833L18.3002 13.45C19.0919 14.875 19.1836 16.2417 18.5502 17.3167C17.9169 18.375 16.6752 18.9667 15.0502 18.9667ZM10.0002 3.28333C9.21689 3.28333 8.45022 3.88333 7.84189 4.96666L2.80022 14.0583C2.23356 15.075 2.14189 16.0083 2.53356 16.6833C2.92522 17.3583 3.79189 17.725 4.95856 17.725H15.0586C16.2252 17.725 17.0836 17.3583 17.4836 16.6833C17.8836 16.0083 17.7836 15.0833 17.2169 14.0583L12.1586 4.96666C11.5502 3.88333 10.7836 3.28333 10.0002 3.28333Z" fill="#03D5F8"/>
</g>
</g>
</svg>
