<svg width="32" height="33" viewBox="0 0 32 33" fill="none" xmlns="http://www.w3.org/2000/svg">
<g id="fi_4944618">
<g id="Group">
<g id="Group_2">
<path id="Vector" d="M3.34953 5.93172C3.61079 5.93172 3.82259 5.71992 3.82259 5.45866C3.82259 5.19739 3.61079 4.9856 3.34953 4.9856C3.08826 4.9856 2.87646 5.19739 2.87646 5.45866C2.87646 5.71992 3.08826 5.93172 3.34953 5.93172Z" fill="#03D5F8"/>
<path id="Vector_2" d="M5.41154 5.93172C5.6728 5.93172 5.8846 5.71992 5.8846 5.45866C5.8846 5.19739 5.6728 4.9856 5.41154 4.9856C5.15027 4.9856 4.93848 5.19739 4.93848 5.45866C4.93848 5.71992 5.15027 5.93172 5.41154 5.93172Z" fill="#03D5F8"/>
<path id="Vector_3" d="M7.47355 5.93172C7.73482 5.93172 7.94661 5.71992 7.94661 5.45866C7.94661 5.19739 7.73482 4.9856 7.47355 4.9856C7.21229 4.9856 7.00049 5.19739 7.00049 5.45866C7.00049 5.71992 7.21229 5.93172 7.47355 5.93172Z" fill="#03D5F8"/>
<g id="Group_3">
<path id="Vector_4" d="M19.5726 13.1062C19.3136 13.1062 19.1035 13.3162 19.1035 13.5753C19.1035 13.8345 19.3135 14.0445 19.5726 14.0445H23.229C23.4881 14.0445 23.6981 13.8345 23.6981 13.5753C23.6981 13.3162 23.4881 13.1062 23.229 13.1062H19.5726Z" fill="#03D5F8"/>
<path id="Vector_5" d="M26.8854 8.94946H19.5726C19.3136 8.94946 19.1035 9.15946 19.1035 9.41859C19.1035 9.67771 19.3135 9.88771 19.5726 9.88771H26.8854C27.1445 9.88771 27.3545 9.67771 27.3545 9.41859C27.3545 9.15946 27.1445 8.94946 26.8854 8.94946Z" fill="#03D5F8"/>
<path id="Vector_6" d="M27.3545 11.497C27.3545 11.2378 27.1445 11.0278 26.8854 11.0278H19.5726C19.3136 11.0278 19.1035 11.2378 19.1035 11.497C19.1035 11.7561 19.3135 11.9661 19.5726 11.9661H26.8854C27.1445 11.9661 27.3545 11.7561 27.3545 11.497Z" fill="#03D5F8"/>
<path id="Vector_7" d="M30.7334 19.563C30.6516 19.3147 30.5503 19.0708 30.4316 18.8361C30.905 18.3135 30.8919 17.5043 30.3852 16.9976L29.9313 16.5436C29.4263 16.0388 28.6141 16.0238 28.0927 16.4972C27.8581 16.3785 27.6141 16.2773 27.3659 16.1954C27.3303 15.4911 26.7461 14.929 26.0331 14.929H25.3911C24.6781 14.929 24.0939 15.4911 24.0583 16.1954C23.8101 16.2773 23.5661 16.3785 23.3314 16.4973C22.8088 16.0237 21.9997 16.0369 21.493 16.5436L21.039 16.9976C20.5243 17.5123 20.5273 18.324 20.9926 18.8361C20.8741 19.0705 20.7728 19.3145 20.6908 19.5629C19.9753 19.597 19.4243 20.1598 19.4243 20.8719V21.5616C19.4243 22.2721 19.9728 22.834 20.6907 22.8705C20.7727 23.1191 20.874 23.3631 20.9926 23.5975C20.5191 24.12 20.5322 24.9292 21.0389 25.436L21.4929 25.8898C21.9939 26.391 22.7994 26.4153 23.3311 25.9361C23.5659 26.0549 23.8099 26.1563 24.0583 26.2381C24.0938 26.9425 24.678 27.5045 25.391 27.5045H26.033C26.746 27.5045 27.3302 26.9425 27.3658 26.2381C27.6139 26.1563 27.8579 26.055 28.0926 25.9363C28.6159 26.4097 29.4268 26.3943 29.9311 25.8899L30.3851 25.436C30.8918 24.9293 30.905 24.1202 30.4314 23.5975C30.5501 23.3628 30.6514 23.1188 30.7333 22.8705C31.4376 22.835 31.9997 22.2508 31.9997 21.5378V20.8958C31.9998 20.1827 31.4377 19.5985 30.7334 19.563ZM31.0616 21.5377C31.0616 21.7562 30.8839 21.934 30.6654 21.934L30.6559 21.934C30.6554 21.934 30.6493 21.934 30.6488 21.9341C30.2869 21.9384 29.9693 22.1769 29.8583 22.5275C29.7833 22.7647 29.6865 22.9977 29.5708 23.22C29.4007 23.5463 29.4564 23.9398 29.7098 24.2C29.7123 24.2063 29.9994 24.4948 29.7218 24.7724L29.2678 25.2263C28.9903 25.504 28.701 25.2163 28.6948 25.2139C28.4353 24.961 28.0418 24.9055 27.7154 25.0753C27.4929 25.1912 27.2599 25.288 27.0229 25.3629C26.6723 25.4738 26.4338 25.7915 26.4294 26.1551C26.4268 26.1614 26.4239 26.5663 26.0331 26.5663H25.3911C24.9993 26.5663 24.9974 26.1598 24.9947 26.1536C24.9904 25.7916 24.7519 25.4738 24.4013 25.3629C24.1642 25.288 23.9312 25.1912 23.7088 25.0754C23.5828 25.0097 23.4469 24.9777 23.3124 24.9777C22.9357 24.9777 22.7237 25.2218 22.7167 25.2264C22.5618 25.3813 22.3112 25.3813 22.1563 25.2264L21.7023 24.7725C21.5502 24.6203 21.5441 24.3703 21.7041 24.2103C21.7073 24.2038 22.1355 23.7618 21.8534 23.22C21.7377 22.998 21.6409 22.765 21.5658 22.5275C21.4549 22.1768 21.1373 21.9384 20.7779 21.9342C20.7716 21.9318 20.3624 21.9352 20.3624 21.5616V20.8719C20.3624 20.4999 20.769 20.5018 20.7753 20.4993C21.1373 20.4951 21.4549 20.2566 21.5658 19.906C21.6409 19.6686 21.7377 19.4356 21.8534 19.2135C22.0234 18.8871 21.9678 18.4936 21.7161 18.2353C21.7136 18.2291 21.4239 17.9395 21.7024 17.661L22.1564 17.207C22.4339 16.9295 22.7231 17.217 22.7293 17.2194C22.9888 17.4725 23.3824 17.528 23.7088 17.3581C23.9312 17.2422 24.1642 17.1455 24.4013 17.0705C24.7519 16.9596 24.9904 16.6418 24.9947 16.278C24.9974 16.2718 25.0003 15.8671 25.391 15.8671H26.0329C26.4247 15.8671 26.4266 16.2736 26.4293 16.28C26.4336 16.6419 26.6721 16.9596 27.0228 17.0705C27.2598 17.1455 27.4928 17.2422 27.7152 17.358C28.0416 17.5281 28.4352 17.4725 28.6914 17.2225C28.6977 17.22 28.9879 16.9271 29.2677 17.207L29.7216 17.661C29.9997 17.939 29.7116 18.2278 29.7091 18.234C29.4562 18.4935 29.4005 18.887 29.5705 19.2133C29.6863 19.4357 29.7831 19.6687 29.8581 19.906C29.9691 20.2566 30.2868 20.495 30.6464 20.4993L30.6652 20.4994C30.8837 20.4994 31.0614 20.6772 31.0614 20.8957V21.5377H31.0616Z" fill="#03D5F8"/>
<path id="Vector_8" d="M25.712 17.9172C23.8927 17.9172 22.4126 19.3974 22.4126 21.2167C22.4126 23.036 23.8927 24.5161 25.712 24.5161C27.5313 24.5161 29.0115 23.036 29.0115 21.2167C29.0115 19.3973 27.5313 17.9172 25.712 17.9172ZM25.712 23.5779C24.41 23.5779 23.3508 22.5187 23.3508 21.2166C23.3508 19.9146 24.41 18.8554 25.712 18.8554C27.014 18.8554 28.0733 19.9145 28.0733 21.2166C28.0733 22.5186 27.014 23.5779 25.712 23.5779Z" fill="#03D5F8"/>
<path id="Vector_9" d="M18.6319 26.0742H18.2494L17.8407 24.0255H19.216C19.4751 24.0255 19.6851 23.8155 19.6851 23.5564C19.6851 23.2973 19.4751 23.0873 19.216 23.0873H17.2736C17.2721 23.0873 17.2707 23.0873 17.2692 23.0873C16.5781 23.0873 2.14056 23.0873 1.4785 23.0873C1.18062 23.0873 0.93825 22.845 0.93825 22.5471V7.68384H28.5539V14.4348C28.5539 14.694 28.7639 14.904 29.023 14.904C29.2821 14.904 29.4921 14.694 29.4921 14.4348V4.71184C29.4921 3.89665 28.8289 3.2334 28.0137 3.2334H1.47844C0.66325 3.2334 0 3.89665 0 4.71184V22.5471C0 23.3623 0.66325 24.0256 1.47844 24.0256H11.6514L11.2427 26.0742H10.8602C9.60794 26.0742 8.58912 27.093 8.58912 28.3452C8.58912 29.0493 9.162 29.6221 9.86613 29.6221H19.626C20.3301 29.6221 20.9029 29.0493 20.9029 28.3452C20.9029 27.093 19.8841 26.0742 18.6319 26.0742ZM1.47844 4.17165H28.0136C28.3115 4.17165 28.5539 4.41396 28.5539 4.71184V6.74565H0.938187V4.71184C0.938187 4.41396 1.18056 4.17165 1.47844 4.17165ZM12.6081 24.0255H16.8841L17.2927 26.0742H12.1994L12.6081 24.0255ZM19.626 28.6839H9.86613C9.67931 28.6839 9.52731 28.5319 9.52731 28.3451C9.52731 27.6102 10.1252 27.0123 10.8602 27.0123H18.6319C19.3668 27.0123 19.9648 27.6102 19.9648 28.3451C19.9648 28.532 19.8127 28.6839 19.626 28.6839Z" fill="#03D5F8"/>
<path id="Vector_10" d="M17.4305 9.4691C17.4305 9.06885 17.1049 8.74316 16.7045 8.74316H3.13316C2.73285 8.74316 2.40723 9.06885 2.40723 9.4691V13.5248C2.40723 13.925 2.73285 14.2507 3.13316 14.2507H16.7046C17.1049 14.2507 17.4306 13.925 17.4306 13.5248V9.4691H17.4305ZM16.4924 13.3125H3.34541V9.68135H16.4924V13.3125Z" fill="#03D5F8"/>
<path id="Vector_11" d="M3.13323 15.9575C2.73291 15.9575 2.40723 16.2832 2.40723 16.6835V20.7392C2.40723 21.1395 2.73291 21.4651 3.13323 21.4651H6.14273C6.54304 21.4651 6.86873 21.1395 6.86873 20.7392V16.6835C6.86873 16.2832 6.54304 15.9575 6.14273 15.9575H3.13323ZM5.93048 20.527H3.34541V16.8957H5.93048V20.527Z" fill="#03D5F8"/>
<path id="Vector_12" d="M16.7047 15.9575H8.74651C8.3462 15.9575 8.02051 16.2832 8.02051 16.6835V20.7392C8.02051 21.1395 8.3462 21.4651 8.74651 21.4651H16.7047C17.105 21.4651 17.4307 21.1395 17.4307 20.7392V16.6835C17.4306 16.2832 17.1049 15.9575 16.7047 15.9575ZM16.4924 20.527H8.9587V16.8957H16.4924V20.527Z" fill="#03D5F8"/>
</g>
</g>
</g>
</g>
</svg>
