<svg width="32" height="33" viewBox="0 0 32 33" fill="none" xmlns="http://www.w3.org/2000/svg">
<g id="vuesax/outline/document-text">
<g id="document-text">
<path id="Vector" d="M21.3333 30.7611H10.6667C5.8 30.7611 3 27.9611 3 23.0945V9.76115C3 4.89448 5.8 2.09448 10.6667 2.09448H21.3333C26.2 2.09448 29 4.89448 29 9.76115V23.0945C29 27.9611 26.2 30.7611 21.3333 30.7611ZM10.6667 4.09448C6.85333 4.09448 5 5.94782 5 9.76115V23.0945C5 26.9078 6.85333 28.7611 10.6667 28.7611H21.3333C25.1467 28.7611 27 26.9078 27 23.0945V9.76115C27 5.94782 25.1467 4.09448 21.3333 4.09448H10.6667Z" fill="#03D5F8"/>
<path id="Vector_2" d="M24.6668 12.7611H22.0002C19.9735 12.7611 18.3335 11.1211 18.3335 9.0944V6.42773C18.3335 5.88107 18.7868 5.42773 19.3335 5.42773C19.8802 5.42773 20.3335 5.88107 20.3335 6.42773V9.0944C20.3335 10.0144 21.0802 10.7611 22.0002 10.7611H24.6668C25.2135 10.7611 25.6668 11.2144 25.6668 11.7611C25.6668 12.3077 25.2135 12.7611 24.6668 12.7611Z" fill="#03D5F8"/>
<path id="Vector_3" d="M15.9998 18.761H10.6665C10.1198 18.761 9.6665 18.3077 9.6665 17.761C9.6665 17.2143 10.1198 16.761 10.6665 16.761H15.9998C16.5465 16.761 16.9998 17.2143 16.9998 17.761C16.9998 18.3077 16.5465 18.761 15.9998 18.761Z" fill="#03D5F8"/>
<path id="Vector_4" d="M21.3332 24.0945H10.6665C10.1198 24.0945 9.6665 23.6411 9.6665 23.0945C9.6665 22.5478 10.1198 22.0945 10.6665 22.0945H21.3332C21.8798 22.0945 22.3332 22.5478 22.3332 23.0945C22.3332 23.6411 21.8798 24.0945 21.3332 24.0945Z" fill="#03D5F8"/>
</g>
</g>
</svg>
