<svg width="32" height="33" viewBox="0 0 32 33" fill="none" xmlns="http://www.w3.org/2000/svg">
<g id="vuesax/outline/arrow-swap-horizontal">
<g id="arrow-swap-horizontal">
<path id="Vector" d="M20.6534 28.1078C20.4001 28.1078 20.1467 28.0145 19.9467 27.8145C19.5601 27.4278 19.5601 26.7878 19.9467 26.4012L26.6267 19.7212C27.0134 19.3345 27.6534 19.3345 28.0401 19.7212C28.4267 20.1078 28.4267 20.7478 28.0401 21.1345L21.3601 27.8145C21.1601 28.0012 20.9067 28.1078 20.6534 28.1078Z" fill="#03D5F8"/>
<path id="Vector_2" d="M27.3332 21.4143H4.6665C4.11984 21.4143 3.6665 20.961 3.6665 20.4143C3.6665 19.8676 4.11984 19.4143 4.6665 19.4143H27.3332C27.8798 19.4143 28.3332 19.8676 28.3332 20.4143C28.3332 20.961 27.8798 21.4143 27.3332 21.4143Z" fill="#03D5F8"/>
<path id="Vector_3" d="M4.66659 13.4411C4.41326 13.4411 4.15992 13.3477 3.95992 13.1477C3.57326 12.7611 3.57326 12.1211 3.95992 11.7344L10.6399 5.0544C11.0266 4.66774 11.6666 4.66774 12.0533 5.0544C12.4399 5.44107 12.4399 6.08107 12.0533 6.46774L5.37326 13.1477C5.18659 13.3344 4.91992 13.4411 4.66659 13.4411Z" fill="#03D5F8"/>
<path id="Vector_4" d="M27.3332 13.4412H4.6665C4.11984 13.4412 3.6665 12.9878 3.6665 12.4412C3.6665 11.8945 4.11984 11.4412 4.6665 11.4412H27.3332C27.8798 11.4412 28.3332 11.8945 28.3332 12.4412C28.3332 12.9878 27.8798 13.4412 27.3332 13.4412Z" fill="#03D5F8"/>
</g>
</g>
</svg>
